<?xml version="1.0" standalone="no"?><!DOCTYPE svg PUBLIC "-//W3C//DTD SVG 1.1//EN" "http://www.w3.org/Graphics/SVG/1.1/DTD/svg11.dtd"><svg t="1733158450168" class="icon" viewBox="0 0 1024 1024" version="1.1" xmlns="http://www.w3.org/2000/svg" p-id="6507" xmlns:xlink="http://www.w3.org/1999/xlink" width="200" height="200"><path d="M512 1024C229.23 1024 0 794.77 0 512S229.23 0 512 0s512 229.23 512 512-229.23 512-512 512zM394.277 270.738c5.12 3.84 10.386 8.229 15.725 13.166 5.376 4.9 10.204 10.606 14.483 17.006 2.157 3.437 4.717 7.277 7.716 11.556a453.851 453.851 0 0 1 17.372 27.612h133.046a145.554 145.554 0 0 0 8.375-13.495c2.121-3.84 4.499-7.68 7.059-11.557a394.971 394.971 0 0 1 19.931-27.282c4.279-5.34 10.496-10.606 18.651-15.726a29.367 29.367 0 0 0 8.668-8.338 26.807 26.807 0 0 0 4.498-10.277 15.909 15.909 0 0 0-1.316-9.947 15.14 15.14 0 0 0-8.668-7.387c-3.84-1.28-7.168-1.72-9.947-1.28a40.229 40.229 0 0 0-8.375 2.23 339.359 339.359 0 0 0-8.668 3.548 27.794 27.794 0 0 1-10.934 1.938 22.309 22.309 0 0 1-10.606-2.267 39.131 39.131 0 0 1-7.68-5.45 2451.749 2451.749 0 0 1-7.424-6.729 26.002 26.002 0 0 0-10.277-5.485c-8.557-3.401-15.433-4.023-20.59-1.902-5.12 2.121-10.24 5.559-15.396 10.24a75.959 75.959 0 0 1-10.277 8.997 6.29 6.29 0 0 1-3.218 1.28 39.57 39.57 0 0 1-7.095-4.462 61.55 61.55 0 0 1-6.107-4.206 32.549 32.549 0 0 1-5.486-5.449c-3.401-3.401-8.521-5.669-15.36-6.73a26.624 26.624 0 0 0-18.651 3.548c-7.315 4.681-12.435 8.631-15.47 11.85a25.161 25.161 0 0 1-13.495 6.765 20.553 20.553 0 0 1-11.227-0.658l-12.544-3.84a69.193 69.193 0 0 0-12.215-2.56 14.373 14.373 0 0 0-10.277 2.56c-5.997 4.681-7.936 10.35-5.778 17.006a29.623 29.623 0 0 0 11.557 15.725z m348.086 305.884a187.977 187.977 0 0 0-17.042-56.174 192.841 192.841 0 0 0-28.599-42.679 368.86 368.86 0 0 0-31.817-31.817c-12.434-10.24-23.369-19.968-32.804-29.184a466.725 466.725 0 0 1-23.772-24.722 261.669 261.669 0 0 1-19.273-22.455h-144.64c-5.559 7.278-11.995 14.994-19.273 23.113a309.394 309.394 0 0 1-22.492 24.064c-9.033 8.777-19.09 18.066-30.244 27.94a261.851 261.851 0 0 0-35.657 37.852 214.309 214.309 0 0 0-42.423 100.79 185.234 185.234 0 0 0 1.609 60.344c3.438 18.834 10.496 37.778 21.211 56.795 10.716 19.054 25.162 36.279 43.374 51.676 18.213 15.433 40.412 27.94 66.56 37.558 26.112 9.655 56.137 14.446 89.966 14.446 33.024 0 62.464-4.169 88.393-12.507a227.182 227.182 0 0 0 67.182-33.72c18.834-14.116 33.938-30.683 45.312-49.736 11.337-19.017 18.944-39.278 22.82-60.672 4.28-26.076 4.828-49.737 1.61-70.949z m-148.48 102.692a18.286 18.286 0 0 1-10.605 2.926h-44.983v12.8a16.896 16.896 0 0 1-4.864 11.264 14.226 14.226 0 0 1-12.508 4.79 22.199 22.199 0 0 1-12.873-3.51c-3.437-2.377-5.34-6.546-5.778-12.544v-12.8h-43.703a15.872 15.872 0 0 1-10.606-3.547 9.29 9.29 0 0 1-3.547-8.668c0-3.84 1.39-6.948 4.17-9.326a14.958 14.958 0 0 1 9.983-3.51h43.703v-22.455h-43.703a13.897 13.897 0 0 1-10.313-3.877 12.325 12.325 0 0 1-3.84-8.996c0-3.402 1.39-6.62 4.17-9.619a13.166 13.166 0 0 1 9.983-4.498h43.703l0.622-13.495a950.126 950.126 0 0 1-36.608-38.51l-9.655-8.96a37.413 37.413 0 0 1-5.778-10.605c-1.72-4.499-0.878-9.107 2.56-13.824a12.178 12.178 0 0 1 14.153-3.511 40.229 40.229 0 0 1 13.495 7.387c1.718 2.121 4.717 5.34 8.996 9.619l13.532 13.494 17.334 17.335 19.895-18.651a888.978 888.978 0 0 1 26.368-23.077 18.907 18.907 0 0 1 12.873-5.12c4.718 0 8.558 1.902 11.557 5.742 5.559 6.437 3.438 13.897-6.437 22.491-2.56 2.122-6.4 5.852-11.556 11.228a1052.9 1052.9 0 0 1-15.433 15.726 436.663 436.663 0 0 1-19.932 19.894v12.215h41.801c5.998 0 10.387 1.39 13.166 4.17 2.78 2.779 4.17 5.85 4.17 9.289a14.117 14.117 0 0 1-3.84 9.947c-2.56 2.78-6.876 3.95-12.874 3.547l-41.764 0.659-0.659 21.796h41.143c11.996 0 17.993 4.499 17.993 13.495 0.44 4.279-0.731 7.388-3.51 9.29z" fill="#FFB346" p-id="6508"></path></svg>