<?xml version="1.0" standalone="no"?><!DOCTYPE svg PUBLIC "-//W3C//DTD SVG 1.1//EN" "http://www.w3.org/Graphics/SVG/1.1/DTD/svg11.dtd"><svg t="1733125438448" class="icon" viewBox="0 0 1024 1024" version="1.1" xmlns="http://www.w3.org/2000/svg" p-id="6299" xmlns:xlink="http://www.w3.org/1999/xlink" width="200" height="200"><path d="M64.3 270.1v484.7c0 12.2 10.2 22.4 22.4 22.4h851.2c12.2 0 22.4-10.2 22.4-22.4V270.1c0-12.2-10.2-22.4-22.4-22.4H86.6c-12.2 0-22.3 10.2-22.3 22.4z m853.2 486.7H107c-12.2 0-22.4-10.2-22.4-22.4V290.5c0-12.2 10.2-22.4 22.4-22.4h810.5c12.2 0 22.4 10.2 22.4 22.4v443.9c0 12.2-10.2 22.4-22.4 22.4zM290.3 406.6c10.2-12.2 16.3-28.5 14.3-44.8-14.3 0-32.6 10.2-42.8 20.4-10.2 10.2-18.3 26.5-14.3 42.8 16.3 1.9 32.6-6.2 42.8-18.4M331 508.4c0 42.8 38.7 55 38.7 55s-6.1 20.4-20.4 38.7c-12.2 16.3-24.4 32.6-44.8 34.6-18.3 0-24.4-10.2-46.8-10.2s-28.5 10.2-46.8 12.2c-18.3 0-32.6-18.3-44.8-34.6-24.4-34.6-42.8-95.7-18.3-138.5 12.2-20.4 34.6-34.6 59.1-34.6 18.3 0 36.7 12.2 46.8 12.2 12.2 0 32.6-14.3 55-12.2 10.2 0 34.6 4.1 52.9 26.5 0 0-30.6 16.3-30.6 50.9m73.3-97.8h89.6c50.9 0 75.3 20.4 75.3 63.1s-24.4 65.2-75.3 65.2h-63.1v89.6h-24.4V410.6h-2.1z m24.5 22.4v85.5h63.1c16.3 0 30.5-4.1 38.7-10.2 8.1-6.1 12.2-18.3 12.2-32.6s-4.1-24.4-12.2-32.6c-8.1-6.1-20.4-10.2-38.7-10.2 0 0.1-63.1 0.1-63.1 0.1z m287.1 51c10.2 10.2 14.3 24.4 14.3 42.8v101.8h-22.4v-26.5c-6.1 8.1-14.3 16.3-24.4 20.4-12.2 6.1-24.4 10.2-38.7 10.2-16.3 0-28.5-4.1-38.7-12.2s-14.3-20.4-14.3-32.6c0-20.4 8.1-34.6 24.4-44.8 12.2-8.1 30.5-12.2 52.9-12.2h38.7v-6.1c0-26.5-14.3-38.7-40.7-38.7-12.2 0-22.4 2-30.5 8.1-8.1 6.1-12.2 14.3-14.3 24.4h-24.4c2-18.3 10.2-30.5 22.4-40.7 12.2-8.1 26.5-12.2 46.8-12.2 20.4-0.1 36.7 6 48.9 18.3z m-10.2 67.2H669c-34.6 0-52.9 12.2-52.9 36.7 0 8.1 2 14.3 8.1 18.3 6.1 4.1 14.3 6.1 24.4 6.1 16.3 0 28.5-4.1 40.7-14.3 10.2-10.2 16.3-20.4 16.3-34.6l0.1-12.2z m44.8-79.5H777L825.8 596l46.8-124.2h26.5l-85.5 217.9h-26.5l26.5-63.1-63.1-154.9z" fill="#333333" p-id="6300"></path></svg>