<?xml version="1.0" standalone="no"?><!DOCTYPE svg PUBLIC "-//W3C//DTD SVG 1.1//EN" "http://www.w3.org/Graphics/SVG/1.1/DTD/svg11.dtd"><svg t="1733072035547" class="icon" viewBox="0 0 1024 1024" version="1.1" xmlns="http://www.w3.org/2000/svg" p-id="26201" xmlns:xlink="http://www.w3.org/1999/xlink" width="200" height="200"><path d="M511.6 65.1c-245.4 0-445 199.6-445 445s199.6 445 445 445 445-199.6 445-445-199.6-445-445-445z m0 852.9c-224.9 0-407.9-183-407.9-407.9s183-407.9 407.9-407.9 407.9 183 407.9 407.9S736.5 918 511.6 918z" p-id="26202"></path><path d="M604.3 584.3c10.2 0 18.5-8.3 18.5-18.5s-8.3-18.5-18.5-18.5h-65.8l51.8-51.8c7.2-7.2 7.2-19 0-26.2-7.2-7.2-19-7.2-26.2 0l-52.4 52.4-52.4-52.4c-7.2-7.2-19-7.2-26.2 0-7.2 7.2-7.2 19 0 26.2l51.8 51.8h-65.8c-10.2 0-18.5 8.3-18.5 18.5s8.3 18.5 18.5 18.5H493v37.1h-74.2c-10.2 0-18.5 8.3-18.5 18.5s8.3 18.5 18.5 18.5H493V714c0 10.2 8.3 18.5 18.5 18.5S530 724.2 530 714v-55.6h74.2c10.2 0 18.5-8.3 18.5-18.5s-8.3-18.5-18.5-18.5H530v-37.1h74.3z" p-id="26203"></path><path d="M665.4 427.3c13.7-2.6 27-8.2 38.1-19.3 34.3-34.3 37.1-92.7 6.3-130.3-21.4-26.2-60.9-42.7-112.1-19.5-13.7-47.2-59.8-60.7-86.2-60.7s-72.5 13.4-86.2 60.7c-51.2-23.2-90.6-6.7-112.1 19.5-30.8 37.6-28 96 6.3 130.3 11 11.1 24.3 16.7 38.1 19.3C293.8 474.6 252 550.4 252 635.9v83.4c0 48.2 39.2 87.4 87.4 87.4h344.3c48.2 0 87.4-39.2 87.4-87.4v-83.4c0.1-85.5-41.7-161.3-105.7-208.6z m-319.5-45.5c-23.7-23.7-20.5-60.3-3.9-80.5 19.1-23.4 51.1-22.6 87.7 1.8l28.8 19.2v-34.7c0-49.8 44.2-52.9 53-53 5.4 0 53 1.5 53 53v34.7l28.8-19.2c36.7-24.4 68.6-25.2 87.7-1.8 16.6 20.2 19.8 56.8-3.9 80.5-25.5 25.5-90.5 5.8-90.5 5.8-23.8-7.2-49-11.2-75.2-11.2s-51.4 4-75.2 11.2c0.2-0.1-64.9 19.7-90.3-5.8z m388.2 337.6c0 27.7-22.6 50.3-50.3 50.3H339.4c-27.7 0-50.3-22.6-50.3-50.3V636c0-122.7 99.8-222.5 222.5-222.5S734.1 513.3 734.1 636v83.4z" p-id="26204"></path></svg>