<?xml version="1.0" standalone="no"?><!DOCTYPE svg PUBLIC "-//W3C//DTD SVG 1.1//EN" "http://www.w3.org/Graphics/SVG/1.1/DTD/svg11.dtd"><svg t="1733070642047" class="icon" viewBox="0 0 1024 1024" version="1.1" xmlns="http://www.w3.org/2000/svg" p-id="12823" xmlns:xlink="http://www.w3.org/1999/xlink" width="200" height="200"><path d="M790.81 886.24c-29.3 0-56.84-11.41-77.56-32.13L577.4 718.26c-75.92 24.62-159.47 4.94-216.53-52.12L162.24 467.51c-40.28-40.28-62.46-93.83-62.46-150.79 0-56.96 22.18-110.51 62.46-150.79l16.25-16.25c38.76-38.76 101.83-38.76 140.59 0l549.29 549.31c20.72 20.72 32.13 48.26 32.13 77.56 0 29.3-11.41 56.84-32.13 77.56-20.72 20.72-48.26 32.13-77.56 32.13z m-207.62-216.5c5.86 0 11.61 2.29 15.91 6.59L745.07 822.3c12.22 12.22 28.46 18.95 45.74 18.95s33.52-6.73 45.74-18.95c12.22-12.22 18.95-28.46 18.95-45.74s-6.73-33.52-18.95-45.74L287.26 181.51c-21.21-21.21-55.74-21.21-76.95 0l-16.25 16.25c-31.78 31.78-49.28 74.03-49.28 118.97s17.5 87.19 49.28 118.97l198.63 198.63c32.22 32.22 75.17 49.34 118.94 49.34 21.22 0 42.64-4.02 63.13-12.3 2.73-1.1 5.59-1.64 8.42-1.64z" fill="#333333" p-id="12824"></path><path d="M239.81 885.81c-28.09 0-56.18-10.69-77.56-32.08-20.72-20.72-32.13-48.26-32.13-77.56 0-29.3 11.41-56.84 32.13-77.56l86.29-86.29 0.25-0.25 43.05-41.72c8.92-8.65 23.17-8.43 31.82 0.5 8.65 8.92 8.43 23.17-0.5 31.82l-42.92 41.6-86.17 86.17c-12.22 12.22-18.95 28.46-18.95 45.74s6.73 33.52 18.95 45.74c25.13 25.13 65.97 25.22 91.22 0.27l135.74-146c8.46-9.1 22.7-9.62 31.8-1.16 9.1 8.46 9.62 22.7 1.16 31.8L317.95 853.15c-0.19 0.2-0.38 0.4-0.57 0.59-21.38 21.38-49.48 32.07-77.56 32.08zM697.5 569c-5.75 0-11.5-2.19-15.9-6.58-8.79-8.78-8.8-23.03-0.02-31.82l160.09-160.34c5.8-5.8 8.98-13.49 8.98-21.67s-3.19-15.87-8.97-21.66L689.05 174.3c-11.94-11.94-31.37-11.94-43.32 0L484.4 335.42c-8.79 8.78-23.04 8.77-31.82-0.02-8.78-8.79-8.77-23.04 0.02-31.82l161.31-161.11c29.48-29.48 77.46-29.48 106.95 0.01l152.63 152.63c14.28 14.28 22.15 33.28 22.15 53.48s-7.87 39.19-22.15 53.48L713.42 562.39c-4.39 4.4-10.16 6.6-15.92 6.6z" fill="#333333" p-id="12825"></path><path d="M676.5 362c-5.76 0-11.52-2.2-15.91-6.59-8.79-8.79-8.79-23.03 0-31.82L765.36 218.8c8.79-8.79 23.03-8.79 31.82 0s8.79 23.03 0 31.82L692.41 355.41A22.435 22.435 0 0 1 676.5 362z" fill="#333333" p-id="12826"></path></svg>