<?xml version="1.0" standalone="no"?><!DOCTYPE svg PUBLIC "-//W3C//DTD SVG 1.1//EN" "http://www.w3.org/Graphics/SVG/1.1/DTD/svg11.dtd"><svg t="1733069914324" class="icon" viewBox="0 0 1024 1024" version="1.1" xmlns="http://www.w3.org/2000/svg" p-id="11656" xmlns:xlink="http://www.w3.org/1999/xlink" width="200" height="200"><path d="M721.6 412l-12.8-46.4c-15.2-56-66.4-95.2-124-95.2H439.2c-57.6 0-108.8 39.2-124 95.2l-12.8 46.4c-4 15.2-0.8 30.4 8.8 42.4 9.6 12 23.2 19.2 39.2 19.2h324.8c15.2 0 29.6-7.2 39.2-19.2 8-12 11.2-28 7.2-42.4z m-46.4 13.6c0 0.8-0.8 0.8-0.8 0.8H349.6h-0.8v-0.8l12.8-46.4c9.6-35.2 41.6-59.2 77.6-59.2H584c36 0 68.8 24.8 77.6 59.2l12.8 46.4c0.8-0.8 0.8-0.8 0.8 0z" p-id="11657" fill="#ffffff"></path><path d="M858.4 288.8c-26.4-86.4-104-144-194.4-144H364c-89.6 0-168 57.6-194.4 144l-32.8 107.2h-5.6c-39.2 0-72 32-72 72V656c0 52.8 36 98.4 85.6 111.2 3.2 59.2 52 106.4 112 106.4 58.4 0 107.2-45.6 112-102.4h176c16 0 29.6-12.8 29.6-29.6S562.4 712 546.4 712H311.2v48.8a53.6 53.6 0 0 1-107.2 0V712h-29.6c-31.2 0-56-25.6-56-56V468c0-7.2 5.6-12.8 12.8-12.8h16c16.8 0 32.8-9.6 40-24.8l38.4-124c18.4-60.8 73.6-102.4 137.6-102.4h300c64 0 119.2 40.8 137.6 102.4 2.4 7.2 7.2 13.6 14.4 17.6 7.2 4 15.2 4.8 22.4 2.4 7.2-2.4 13.6-7.2 17.6-14.4 4.8-8 5.6-16 3.2-23.2z" p-id="11658" fill="#ffffff"></path><path d="M261.6 643.2m-52.8 0a52.8 52.8 0 1 0 105.6 0 52.8 52.8 0 1 0-105.6 0Z" p-id="11659" fill="#ffffff"></path><path d="M895.2 709.6c-1.6-6.4-5.6-11.2-10.4-15.2-11.2-7.2-26.4-4-32.8 8-8.8 14.4-20.8 27.2-34.4 37.6-4.8 4-8.8 9.6-9.6 16-0.8 6.4 0.8 12.8 4.8 17.6 4.8 6.4 12 9.6 19.2 9.6 5.6 0 10.4-1.6 14.4-4.8 18.4-13.6 33.6-30.4 46.4-50.4 3.2-5.6 4-12.8 2.4-18.4z" p-id="11660" fill="#ffffff"></path><path d="M930.4 584l-112-143.2c-5.6-7.2-14.4-11.2-24-11.2s-18.4 4-24.8 11.2L657.6 584c-48.8 62.4-48.8 149.6 0 212 32.8 42.4 82.4 66.4 136 66.4 53.6 0 103.2-24 136-66.4 49.6-62.4 49.6-149.6 0.8-212z m-38.4 182.4c-24 30.4-59.2 48-98.4 48-38.4 0-74.4-17.6-98.4-48-35.2-44.8-35.2-108 0-152.8l98.4-126.4 98.4 126.4c35.2 44.8 35.2 107.2 0 152.8z" p-id="11661" fill="#ffffff"></path></svg>