<?xml version="1.0" standalone="no"?><!DOCTYPE svg PUBLIC "-//W3C//DTD SVG 1.1//EN" "http://www.w3.org/Graphics/SVG/1.1/DTD/svg11.dtd"><svg t="1733125589957" class="icon" viewBox="0 0 1024 1024" version="1.1" xmlns="http://www.w3.org/2000/svg" p-id="8531" xmlns:xlink="http://www.w3.org/1999/xlink" width="200" height="200"><path d="M222.555621 511.597082c0-33.159366 4.817493-65.255129 13.951959-95.411382L65.330176 281.045644A506.837775 506.837775 0 0 0 11.274154 509.845267c0 82.147636 19.269971 160.666511 53.743198 230.614003L236.319886 605.632038a326.651034 326.651034 0 0 1-13.764265-94.160085v0.062565z" fill="#FFB900" p-id="8532"></path><path d="M530.312073 203.840631a280.916135 280.916135 0 0 1 188.945819 77.142448l141.14628-147.152505C775.190859 50.494206 658.820255 0.00438 524.743802 0.00438A512.71887 512.71887 0 0 0 65.205046 281.108209L236.50758 416.060571c37.538904-124.316339 147.653024-215.661006 293.867057-212.34507v0.062565z" fill="#FE2727" p-id="8533"></path><path d="M530.312073 819.353534c-146.526857 0-256.953801-89.655417-294.054752-213.658931L65.017352 740.33414c84.212276 171.177404 258.392792 290.113167 459.851579 282.91821 141.646799-5.005187 255.765069-48.98827 337.912705-124.504033l-165.671698-125.6302c-45.484639 31.094726-102.293515 46.297982-166.735301 46.297982z" fill="#00AC47" p-id="8534"></path><path d="M519.175531 418.938553v196.4536h280.165357c-17.83098 72.074697-53.492939 124.191209-102.293515 157.663399l165.609134 125.6302C959.944834 809.21803 1012.311606 675.70466 1012.311606 509.720137c0-30.969596-2.440029-61.313544-7.132392-90.781584" fill="#2485FC" p-id="8535"></path></svg>