<?xml version="1.0" standalone="no"?><!DOCTYPE svg PUBLIC "-//W3C//DTD SVG 1.1//EN" "http://www.w3.org/Graphics/SVG/1.1/DTD/svg11.dtd"><svg t="1733069682502" class="icon" viewBox="0 0 1024 1024" version="1.1" xmlns="http://www.w3.org/2000/svg" p-id="10551" xmlns:xlink="http://www.w3.org/1999/xlink" width="200" height="200"><path d="M246.51776 305.43872a217.0624 217.0624 0 0 0 104.89856 189.59872 204.53376 204.53376 0 0 0 209.80224 0 216.832 216.832 0 0 0 104.89856-186.5984c1.60256-57.09824-19.79904-112.39936-59.40224-153.4976S512.7168 90.24 455.61344 89.64096c-117.19168 1.89952-210.79552 98.49856-209.09568 215.79776z" fill="#ffffff" p-id="10552"></path><path d="M653.00992 689.75104v26.75712l107.0336 54.0416v-27.5456z" p-id="10553" fill="#ffffff"></path><path d="M615.00416 846.75584v-180.03968c0-16.96256 18.2272-32.27648 36.8384-39.98208l1.61792-0.68096 12.75904-42.60864c-37.31456-29.05088-69.50912-41.07264-77.60384-21.10464v-0.59904L510.52032 729.2416l-28.00128-72.69888a94.19776 94.19776 0 0 1 16.70144-39.30112c11.29984-28.00128 16.70144-39.30112-11.29984-56.00256-12.49792-6.90176-27.29984-8.4992-41.00096-4.3008s-25.09824 13.70112-31.69792 26.39872c-11.29984 28.00128 16.70144 39.30112 16.70144 56.00256-3.99872 30.10048-9.6 59.89888-16.70144 89.40032s0 22.09792-28.00128-33.39776a1295.00672 1295.00672 0 0 1-55.3984-140.6976c-150.79936 51.90144-228.89984 152.00256-228.89984 298.10176 0 39.61856 344.00768 65.20832 551.17824 35.22048-21.51936-6.80448-39.09632-22.72768-39.09632-41.21088z" fill="#ffffff" p-id="10554"></path><path d="M928.49664 647.97184l-3.2256-0.768 5.04832-12.3648c2.69824-6.58432 2.06848-13.65504-1.76128-19.86048-3.82976-6.20032-10.38336-10.84416-18.44736-13.05088l-139.61216-37.85216a38.656 38.656 0 0 0-10.12736-1.36192c-4.94592 0-9.70752 0.93184-14.15168 2.7904-7.58784 3.11808-13.25568 8.47872-15.93856 15.08864-0.32768 0.79872-0.4608 1.65888-0.38912 2.52928l0.2816 3.53792-5.65248-1.02912a39.71584 39.71584 0 0 0-7.62368-0.74752 37.5296 37.5296 0 0 0-16.47616 3.75808c-7.29088 3.6096-12.416 9.32864-14.42304 16.0512l-13.51168 45.11232-1.31584 0.54784c-15.12448 6.26176-29.93664 18.69824-29.93664 32.4864v146.29376c0 20.01408 25.35424 36.33152 49.8688 36.33152h224.82944c24.52992 0 49.8944-16.31744 49.8944-36.33152v-146.29376c0.01536-16-18.52416-30.33088-37.32992-34.8672z m-80.18432 108.57984v14.83264h-36.01408v11.9552h36.01408v13.96224h-36.01408v29.85472h-16.91648v-29.85472h-36.18816v-13.96224h36.18816v-11.95008h-36.18816v-14.83776h29.35296l-35.48672-65.31584h18.7648l25.4976 47.71328c1.8944 3.44576 3.61984 6.96832 5.16608 10.58816l1.01376 2.2784 1.0496-2.2784c1.31584-3.01056 3.18464-6.75328 5.59616-11.45344l24.12032-46.848h19.95776l-35.30752 65.31584h29.39392z m26.94656-114.03776a4.62336 4.62336 0 0 0-0.24064 1.34144v2.65728H689.92l11.61216-38.72256a13.33248 13.33248 0 0 1 7.21408-8.04352 18.7136 18.7136 0 0 1 12.00128-1.50528l142.83264 28.60032c4.12672 0.80384 7.60832 2.91328 9.82016 5.87264 2.17088 2.7648 2.86208 6.4256 1.85856 9.79968z m39.90016-11.81184l-6.4 15.76448h-18.0992l0.56832-3.06176a21.62176 21.62176 0 0 0-4.2496-17.4848c-4.43904-5.98528-11.41248-10.14784-19.64032-11.77088l-125.0816-25.03168 2.37568-3.10272a4.2496 4.2496 0 0 0 0.76288-1.3312 14.24896 14.24896 0 0 1 7.92064-7.54688l0.07168-0.01536a19.03104 19.03104 0 0 1 12.08832-0.69632l139.63264 37.8368a15.5136 15.5136 0 0 1 9.1904 6.50752c1.90976 3.16416 2.21696 6.69184 0.86016 9.9328z" p-id="10555" fill="#ffffff"></path></svg>