<?xml version="1.0" standalone="no"?><!DOCTYPE svg PUBLIC "-//W3C//DTD SVG 1.1//EN" "http://www.w3.org/Graphics/SVG/1.1/DTD/svg11.dtd"><svg t="1733070865221" class="icon" viewBox="0 0 1060 1024" version="1.1" xmlns="http://www.w3.org/2000/svg" p-id="17513" xmlns:xlink="http://www.w3.org/1999/xlink" width="207.03125" height="200"><path d="M679.975217 812.698689c0 78.211813-63.405209 176.441736-141.617021 176.441737-78.207455 0-141.617021-98.229923-141.617022-176.441737 0 0 134.636391-89.362519 128.997856-235.7248-0.004357 0 20.44514 163.338894 154.236187 235.7248z" fill="#FFB5DC" p-id="17514"></path><path d="M413.482485 829.44s89.449668-104.504647 265.538451 0L532.658655 640.544681l-119.17617 188.895319z" fill="#E6A3C6" p-id="17515"></path><path d="M658.187983 812.698689c0 68.172255-56.420221 154.654502-119.829787 154.654502s-119.829787-86.486604-119.829787-154.654502l-9.738894 18.153124c5.913055-3.921702 144.763098-97.933617 138.714962-254.714553l-43.391456 3.542604c0.893277 7.124426 23.477923 175.339302 165.491473 252.178519l-11.416511-19.159694z m-154.223115-234.883812c5.111285 132.605821-118.030162 215.907132-119.276391 216.730689l-9.738894 6.462094v11.691029c0 89.785191 72.89137 198.22897 163.404255 198.228971s163.404255-108.443779 163.404256-198.228971v-12.980834l-11.420868-6.178859c-121.982366-66.002247-142.797889-217.780834-142.989617-219.301583l-0.352954-2.745192c-0.004357-0.039217-1.028357-2.610111-1.028357-2.61011l-42.00143 8.932766z" fill="#6E6E96" p-id="17516"></path><path d="M330.555915 451.540426a191.196051 125.463966 0 1 0 382.392102 0 191.196051 125.463966 0 1 0-382.392102 0Z" fill="#F2C05A" p-id="17517"></path><path d="M503.947438 576.973889c0 126.357243-102.796528 229.15377-229.15377 229.153771a228.844391 228.844391 0 0 1-211.153157-139.965549 21.787234 21.787234 0 0 0-40.132085 16.98097A272.34914 272.34914 0 0 0 274.793668 849.702128c150.384204 0 272.728238-122.344034 272.728238-272.728239a21.787234 21.787234 0 1 0-43.574468 0z" fill="#6E6E96" p-id="17518"></path><path d="M513.442315 576.973889c0 150.384204 122.344034 272.728238 272.728238 272.728239a272.340426 272.340426 0 0 0 251.285243-166.563405h0.004357a21.787234 21.787234 0 0 0-40.136442-16.98097A228.848749 228.848749 0 0 1 786.170553 806.12766c-126.357243 0-229.15377-102.796528-229.15377-229.153771a21.787234 21.787234 0 1 0-43.574468 0z" fill="#6E6E96" p-id="17519"></path><path d="M252.94543 117.651064m-91.506383 0a91.506383 91.506383 0 1 0 183.012766 0 91.506383 91.506383 0 1 0-183.012766 0Z" fill="#B8B8D4" p-id="17520"></path><path d="M252.94543 47.931915c38.441396 0 69.719149 31.277753 69.719149 69.719149s-31.277753 69.719149-69.719149 69.719149-69.719149-31.277753-69.719149-69.719149 31.273396-69.719149 69.719149-69.719149z m-113.293617 69.719149c0 62.468357 50.82526 113.293617 113.293617 113.293617s113.293617-50.82526 113.293617-113.293617-50.82526-113.293617-113.293617-113.293617-113.293617 50.82526-113.293617 113.293617z" fill="#6E6E96" p-id="17521"></path><path d="M784.55394 117.651064m-91.506383 0a91.506383 91.506383 0 1 0 183.012766 0 91.506383 91.506383 0 1 0-183.012766 0Z" fill="#B8B8D4" p-id="17522"></path><path d="M784.55394 47.931915c38.441396 0 69.719149 31.277753 69.719149 69.719149s-31.277753 69.719149-69.719149 69.719149-69.719149-31.277753-69.719149-69.719149 31.273396-69.719149 69.719149-69.719149z m-113.293617 69.719149c0 62.468357 50.820902 113.293617 113.293617 113.293617s113.293617-50.82526 113.293617-113.293617-50.820902-113.293617-113.293617-113.293617-113.293617 50.82526-113.293617 113.293617z" fill="#6E6E96" p-id="17523"></path><path d="M355.166774 425.835847a144.710809 94.961838 0 1 0 289.421617 0 144.710809 94.961838 0 1 0-289.421617 0Z" fill="#FFDD5F" p-id="17524"></path><path d="M521.751966 347.863694c91.828834 0 169.408817 47.47874 169.408817 103.676732 0 56.197991-77.579983 103.676732-169.408817 103.676731S352.343149 507.738417 352.343149 451.540426c0-56.197991 77.579983-103.676732 169.408817-103.676732zM308.768681 451.540426c0 82.56926 93.554383 147.2512 212.983285 147.2512s212.983285-64.68194 212.983285-147.2512-93.554383-147.2512-212.983285-147.2512S308.768681 368.971166 308.768681 451.540426z" fill="#6E6E96" p-id="17525"></path></svg>