<?xml version="1.0" standalone="no"?><!DOCTYPE svg PUBLIC "-//W3C//DTD SVG 1.1//EN" "http://www.w3.org/Graphics/SVG/1.1/DTD/svg11.dtd"><svg t="1733071791823" class="icon" viewBox="0 0 1024 1024" version="1.1" xmlns="http://www.w3.org/2000/svg" p-id="23847" xmlns:xlink="http://www.w3.org/1999/xlink" width="200" height="200"><path d="M871.432 850.42a1412.368 1412.368 0 0 1-27.5-104.448 1413.228 1413.228 0 0 1-20.452-421.276l-135.532-14.728a1553.032 1553.032 0 0 1 8.196-64.784c13.804-95.92-36.064-193.756-124.4-219.96C483.788-1.004 383.44 73.968 364.616 194.92a1883.788 1883.788 0 0 0-10.548 78.764l-125.256-13.612c-0.28 2.436-0.5 4.88-0.772 7.32l-5.696-1.56c-60.22 187.496-81.964 386.252-63.276 584.268a1468.184 1468.184 0 0 0 27.784 142.476c14.656-6.344 29.336-12.608 44.036-18.78a1294.032 1294.032 0 0 0 47.992 38.928 8388.524 8388.524 0 0 1 71.176-25.588 92718.032 92718.032 0 0 0 521.376-136.716z m-457.316-648c12.932-83.692 80.972-137.86 143.48-121.916 62.696 15.94 99.492 86.024 89.04 157.172a1605.568 1605.568 0 0 0-8.548 66.868l-234.168-25.448a1839.56 1839.56 0 0 1 10.196-76.676z" p-id="23848"></path></svg>