<?xml version="1.0" standalone="no"?><!DOCTYPE svg PUBLIC "-//W3C//DTD SVG 1.1//EN" "http://www.w3.org/Graphics/SVG/1.1/DTD/svg11.dtd"><svg t="1733071686901" class="icon" viewBox="0 0 1125 1024" version="1.1" xmlns="http://www.w3.org/2000/svg" p-id="22745" xmlns:xlink="http://www.w3.org/1999/xlink" width="219.7265625" height="200"><path d="M807.968201 596.039239a140.614027 140.614027 0 0 1-30.653858-2.531052 283.196651 283.196651 0 0 1-207.265076-135.551923c-4.218421-7.030701-6.187017-10.12421-12.092806 0a283.759107 283.759107 0 0 1-240.168759 138.082975 17.717367 17.717367 0 0 0-17.436139 10.967894 281.228055 281.228055 0 0 0-28.122806 177.173675 292.758405 292.758405 0 0 0 293.602089 239.606302 201.078059 201.078059 0 0 0 45.558945-3.093508 286.29016 286.29016 0 0 0 216.82683-411.999101 18.561052 18.561052 0 0 0-20.24842-12.655262z m-168.736832 287.415072a75.369119 75.369119 0 0 1-61.588944 25.310525c-9.280526 0-14.905087-1.687368-7.874386-12.655263a77.337715 77.337715 0 0 0 13.780175-52.02719 59.33912 59.33912 0 0 0-21.092104-42.746664 196.859638 196.859638 0 0 1-2.812281 39.653156 93.086486 93.086486 0 0 1-28.122805 51.464734 45.277717 45.277717 0 0 1-70.307014-8.71807 106.022977 106.022977 0 0 1-6.749473-105.741749 52.308418 52.308418 0 0 1 34.028594-26.716665 79.868768 79.868768 0 0 0-8.436841 30.091402c0 13.498947 4.499649 17.436139 18.279823 15.748771a15.467543 15.467543 0 0 1 5.062105 0c13.217719 1.687368 14.342631-5.062105 12.936491-15.467543a553.73804 553.73804 0 0 1-12.374035-70.588242 86.337013 86.337013 0 0 1 39.934384-70.588241c0 10.405438 1.968596 19.685964 3.655965 28.122805a132.739642 132.739642 0 0 0 50.339822 81.274908c7.030701 5.624561 8.999298 2.812281 10.405438-3.937193a56.245611 56.245611 0 0 0-17.717368-44.152804 68.900873 68.900873 0 0 1 47.246313 23.904384 122.052976 122.052976 0 0 1 1.968597 156.644027zM1120.975026 240.848206A293.320861 293.320861 0 0 0 800.093816 1.804359a292.477177 292.477177 0 0 0-224.982444 134.708238 18.279824 18.279824 0 0 0 0 21.092105 261.260863 261.260863 0 0 1 26.154209 188.704024 286.852616 286.852616 0 0 1-34.309823 80.99368 285.446476 285.446476 0 0 1 67.494734 6.187017 281.228055 281.228055 0 0 1 185.04806 127.677537 19.123508 19.123508 0 0 0 19.123507 10.686666c14.905087 0 29.810174-2.812281 44.434033-5.062105a287.415072 287.415072 0 0 0 237.918934-325.943315zM803.749781 419.428021h-3.093509c1.968596-15.748771 3.655965-31.216314 5.624561-46.965086 2.812281-21.935788 5.624561-44.152805 8.999298-66.369821 1.40614-8.71807-2.249824-10.405438-10.405438-10.124209h-56.245611c44.715261-56.245611 88.024381-111.085082 131.61473-165.643325h2.81228l-5.905789 48.371226c-2.812281 22.217016-5.905789 44.434033-8.999298 66.369821 0 7.874386 1.40614 10.12421 9.561754 10.12421h56.245611zM219.639111 378.931181a68.619645 68.619645 0 0 0 77.618943-16.592456 56.245611 56.245611 0 0 0 10.405438-64.119996 125.70894 125.70894 0 0 1-88.024381 80.712452z" fill="#999999" p-id="22746"></path><path d="M305.413668 561.729416a281.228055 281.228055 0 0 1 165.924552-123.177888 265.760512 265.760512 0 0 1 75.931575-10.12421c8.436842 0 10.12421-2.531052 5.624561-9.280525l-4.218421-7.593158a261.823319 261.823319 0 0 1 0-250.292969 21.373332 21.373332 0 0 0 0-25.591753A298.945422 298.945422 0 0 0 298.101738 1.241903c-13.498947 0-26.716665 0-39.934384 2.812281a287.133844 287.133844 0 0 0-253.105249 323.693491 293.039633 293.039633 0 0 0 281.228055 244.668407 19.685964 19.685964 0 0 0 19.123508-10.686666z m-168.736833-241.574899a215.701918 215.701918 0 0 1 37.122103-112.491222 398.500154 398.500154 0 0 1 59.339119-74.806662c7.311929-7.311929 14.905087-9.842982 23.060701-1.687369a316.381562 316.381562 0 0 1 97.304907 166.768237 178.298587 178.298587 0 0 1 1.968596 21.092104 106.304205 106.304205 0 0 1-109.116485 104.335608 105.741749 105.741749 0 0 1-110.241397-103.210696z" fill="#999999" p-id="22747"></path></svg>